<svg xmlns="http://www.w3.org/2000/svg" viewBox="0 0 240 240">
  <polygon fill="#fcd404" stroke="#070c2f" stroke-width="6" stroke-linejoin="round"
    points="120,8 140,36 172,22 178,56 212,62 200,94 230,112 204,134 220,164 188,172 188,206 156,198 140,228 120,204 100,228 84,198 52,206 52,172 20,164 36,134 10,112 40,94 28,62 62,56 68,22 100,36"/>
  <text x="120" y="112" text-anchor="middle" font-family="Archivo, Arial Black, sans-serif" font-weight="900" font-style="italic" font-size="36" fill="#070c2f">OFERTA</text>
  <path d="M58 140 L 92 140 L 104 120 L 118 160 L 132 128 L 140 140 L 182 140" fill="none" stroke="#131f7b" stroke-width="8" stroke-linecap="round" stroke-linejoin="round"/>
</svg>
